<svg xmlns="http://www.w3.org/2000/svg" id="BJ6jLULxx_bottom" fill-rule="evenodd" stroke-width="0" stroke-linecap="round" stroke-linejoin="round" xmlns:xlink="http://www.w3.org/1999/xlink" clip-rule="evenodd" viewBox="394 394 1960 1960"><defs><style>/*<![CDATA[ */.BJ6jLULxx_fr4 {color: #4D542C;}
.BJ6jLULxx_cu {color: lightgrey;}
.BJ6jLULxx_cf {color: goldenrod;}
.BJ6jLULxx_sm {color: rgba(  0,  68,   0, 0.90);}
.BJ6jLULxx_ss {color: white;}
.BJ6jLULxx_sp {color: rgba(0, 0, 0, 0.0);}
.BJ6jLULxx_out {color: black;}/* ]]>*/</style><circle id="rJW6jLUIge_pad-33" r="20"/><path id="rJW6jLUIge_pad-15" d="M-33.465-33.465h66.929v66.929h-66.929z"/><circle id="rJW6jLUIge_pad-16" r="33.465"/><path id="rJW6jLUIge_pad-23" d="M-33.267-33.267h66.535v66.535h-66.535z"/><circle id="rJW6jLUIge_pad-24" r="33.267"/><circle id="rJW6jLUIge_pad-25" r="93.701"/><circle id="rJW6jLUIge_pad-33" r="20"/><path id="rJW6jLUIge_pad-15" d="M-33.465-33.465h66.929v66.929h-66.929z"/><circle id="rJW6jLUIge_pad-16" r="33.465"/><path id="rJW6jLUIge_pad-23" d="M-33.267-33.267h66.535v66.535h-66.535z"/><circle id="rJW6jLUIge_pad-24" r="33.267"/><circle id="rJW6jLUIge_pad-25" r="93.701"/><path id="H1G6sL8Uge_pad-69" d="M-37.465-37.465h74.929v74.929h-74.929z"/><circle id="H1G6sL8Uge_pad-67" r="37.465"/><path id="H1G6sL8Uge_pad-57" d="M-37.267-37.267h74.535v74.535h-74.535z"/><circle id="H1G6sL8Uge_pad-55" r="37.267"/><circle id="H1G6sL8Uge_pad-53" r="97.701"/><circle id="rJW6jLUIge_pad-33" r="20"/><path id="rJW6jLUIge_pad-15" d="M-33.465-33.465h66.929v66.929h-66.929z"/><circle id="rJW6jLUIge_pad-16" r="33.465"/><path id="rJW6jLUIge_pad-23" d="M-33.267-33.267h66.535v66.535h-66.535z"/><circle id="rJW6jLUIge_pad-24" r="33.267"/><circle id="rJW6jLUIge_pad-25" r="93.701"/><circle id="rJW6jLUIge_pad-33" r="20"/><path id="rJW6jLUIge_pad-15" d="M-33.465-33.465h66.929v66.929h-66.929z"/><circle id="rJW6jLUIge_pad-16" r="33.465"/><path id="rJW6jLUIge_pad-23" d="M-33.267-33.267h66.535v66.535h-66.535z"/><circle id="rJW6jLUIge_pad-24" r="33.267"/><circle id="rJW6jLUIge_pad-25" r="93.701"/><path id="H1G6sL8Uge_pad-69" d="M-37.465-37.465h74.929v74.929h-74.929z"/><circle id="H1G6sL8Uge_pad-67" r="37.465"/><path id="H1G6sL8Uge_pad-57" d="M-37.267-37.267h74.535v74.535h-74.535z"/><circle id="H1G6sL8Uge_pad-55" r="37.267"/><circle id="H1G6sL8Uge_pad-53" r="97.701"/><circle id="BymajLUIxx_pad-1" r="9.55"/><circle id="BymajLUIxx_pad-2" r="21.45"/><circle id="BymajLUIxx_pad-3" r="21.65"/><circle id="BymajLUIxx_pad-4" r="64.15"/><circle id="rJW6jLUIge_pad-33" r="20"/><path id="rJW6jLUIge_pad-15" d="M-33.465-33.465h66.929v66.929h-66.929z"/><circle id="rJW6jLUIge_pad-16" r="33.465"/><path id="rJW6jLUIge_pad-23" d="M-33.267-33.267h66.535v66.535h-66.535z"/><circle id="rJW6jLUIge_pad-24" r="33.267"/><circle id="rJW6jLUIge_pad-25" r="93.701"/><circle id="rJW6jLUIge_pad-33" r="20"/><path id="rJW6jLUIge_pad-15" d="M-33.465-33.465h66.929v66.929h-66.929z"/><circle id="rJW6jLUIge_pad-16" r="33.465"/><path id="rJW6jLUIge_pad-23" d="M-33.267-33.267h66.535v66.535h-66.535z"/><circle id="rJW6jLUIge_pad-24" r="33.267"/><circle id="rJW6jLUIge_pad-25" r="93.701"/><path id="H1G6sL8Uge_pad-69" d="M-37.465-37.465h74.929v74.929h-74.929z"/><circle id="H1G6sL8Uge_pad-67" r="37.465"/><path id="H1G6sL8Uge_pad-57" d="M-37.267-37.267h74.535v74.535h-74.535z"/><circle id="H1G6sL8Uge_pad-55" r="37.267"/><circle id="H1G6sL8Uge_pad-53" r="97.701"/><circle id="rJW6jLUIge_pad-33" r="20"/><path id="rJW6jLUIge_pad-15" d="M-33.465-33.465h66.929v66.929h-66.929z"/><circle id="rJW6jLUIge_pad-16" r="33.465"/><path id="rJW6jLUIge_pad-23" d="M-33.267-33.267h66.535v66.535h-66.535z"/><circle id="rJW6jLUIge_pad-24" r="33.267"/><circle id="rJW6jLUIge_pad-25" r="93.701"/><circle id="rJW6jLUIge_pad-33" r="20"/><path id="rJW6jLUIge_pad-15" d="M-33.465-33.465h66.929v66.929h-66.929z"/><circle id="rJW6jLUIge_pad-16" r="33.465"/><path id="rJW6jLUIge_pad-23" d="M-33.267-33.267h66.535v66.535h-66.535z"/><circle id="rJW6jLUIge_pad-24" r="33.267"/><circle id="rJW6jLUIge_pad-25" r="93.701"/><path id="H1G6sL8Uge_pad-69" d="M-37.465-37.465h74.929v74.929h-74.929z"/><circle id="H1G6sL8Uge_pad-67" r="37.465"/><path id="H1G6sL8Uge_pad-57" d="M-37.267-37.267h74.535v74.535h-74.535z"/><circle id="H1G6sL8Uge_pad-55" r="37.267"/><circle id="H1G6sL8Uge_pad-53" r="97.701"/><circle id="BymajLUIxx_pad-1" r="9.55"/><circle id="BymajLUIxx_pad-2" r="21.45"/><circle id="BymajLUIxx_pad-3" r="21.65"/><circle id="BymajLUIxx_pad-4" r="64.15"/><g id="BJ6jLULxx_bottom_cu"><path fill="none" stroke-width="10" d="M814.445 852.87V519.008m66.929-50H795.64l-20 20.001v757.616m937.248 691.287l87.021 87.021h168.906l55.905-55.905v-66.892m-735.614-854.632v-41.717l-26.567-26.567V835.913l111.571-111.57m594.705 1300.59v205.55M775.64 1246.625v983.858m1121.951-1217.668v-404.35l-50.619-50.619m121.843 688.779v-162.586l-71.224-71.224m127.129 889.321l-50.901-50.901v-276.263l-5.004-5.003v-323.344m-1249.08 655.511h55.905m598.47-1177.793l173.78 173.78V1102.5m476.83 472.471l-50.901.001m-879.746-155.864l-70.002-70.003v-442.18m588.817 1030.987l-218.752 218.752h-225.055m24.992-637.556l-51.534-51.535V960.142l18.217-18.217m-91.675 1014.739l124.992-124.992v-312.564m-24.992 637.556l-68.466 68.466h-75.005l-20-20v-184.995l63.471-63.471m243.807-18.752l.002-786.774m-8.788-242.437h188.784l20.002 20.002v1009.209m-158.786-994.211l58.786 58.786v935.425m123.726-1258.03l66.276 66.275v147.548m-20 396.315v-243.248l-15-15V809.413l-10.949-10.948m139.413-139.122v630.677m-527.273 666.644l-51.534 51.534v100l-48.466 48.466m169.155-1542.321l4.303 4.303v1264.56l-73.458 73.458m6.675-1292.325v103.637l-20.001 20.002H979.343l-20 20v911.834l-127.797 127.797m309.21-1132.097H959.343l-20 20v895.245l-107.797 107.797M648.394 724.917v887.768l71.341 71.341m184.608-933.518v806.194l-72.797 72.797M1354.11 538.744H869.445l-20 20v425.815l34.898 34.898v448.19l-52.797 52.797m158.34-946.7h651.468l20 20v893.255l251.555 251.555m-772.153-1254.81h631.216l20 20v1004.818l120.937 120.937"/><use x="814.445" y="519.008" xlink:href="#rJW6jLUIge_pad-33"/><use x="814.445" y="852.87" xlink:href="#rJW6jLUIge_pad-33"/><use x="1547.89" y="1102.5" xlink:href="#rJW6jLUIge_pad-33"/><use x="1374.11" y="724.343" xlink:href="#rJW6jLUIge_pad-33"/><use x="881.374" y="469.008" xlink:href="#rJW6jLUIge_pad-33"/><use x="1289.106" y="1047.504" xlink:href="#rJW6jLUIge_pad-33"/><use x="1846.972" y="557.846" xlink:href="#rJW6jLUIge_pad-33"/><use x="1897.591" y="1012.815" xlink:href="#rJW6jLUIge_pad-33"/><use x="1024.071" y="906.925" xlink:href="#rJW6jLUIge_pad-33"/><use x="1160.756" y="941.925" xlink:href="#rJW6jLUIge_pad-33"/><use x="1312.89" y="1151.138" xlink:href="#rJW6jLUIge_pad-33"/><use x="1304.102" y="908.701" xlink:href="#rJW6jLUIge_pad-33"/><use x="1354.102" y="943.701" xlink:href="#rJW6jLUIge_pad-33"/><use x="1602.89" y="893.705" xlink:href="#rJW6jLUIge_pad-33"/><use x="1536.614" y="679.882" xlink:href="#rJW6jLUIge_pad-33"/><use x="1556.941" y="798.465" xlink:href="#rJW6jLUIge_pad-33"/><use x="1582.89" y="1290.02" xlink:href="#rJW6jLUIge_pad-33"/><use x="1696.354" y="1290.02" xlink:href="#rJW6jLUIge_pad-33"/><use x="1696.354" y="659.343" xlink:href="#rJW6jLUIge_pad-33"/><use x="1238.236" y="614.343" xlink:href="#rJW6jLUIge_pad-33"/><use x="1175.756" y="664.339" xlink:href="#rJW6jLUIge_pad-33"/><use x="1140.756" y="715.512" xlink:href="#rJW6jLUIge_pad-33"/><use x="648.394" y="724.917" xlink:href="#rJW6jLUIge_pad-33"/><use x="904.343" y="750.508" xlink:href="#rJW6jLUIge_pad-33"/><use x="1354.11" y="538.744" xlink:href="#rJW6jLUIge_pad-33"/><use x="989.886" y="573.744" xlink:href="#rJW6jLUIge_pad-33"/><use x="1140.756" y="483.744" xlink:href="#rJW6jLUIge_pad-33"/><path fill="none" stroke-width="25" d="M435.025 2290.631h234.062m213.106 0h980.058m213.155 0h237.577m-1877.958-24.869h223.222m234.786 0h958.378m234.834 0h226.738m-1877.958-24.868h218.388m244.453 0h96.465m137.568 0h714.678m244.502 0h221.904m-1877.958-24.869h218.778m243.672 0h76.055m206.555 0h666.882m243.672 0h222.344m-1877.958-24.869h224.541m232.148 0h79.912m248.995 0h632.109m232.148 0h228.105m-1877.958-24.869h236.504m208.222 0h91.875m459.932 0h433.135m208.222 0h240.068m-1877.958-24.868h257.402m166.426 0h112.773m484.785 0h429.18m166.426 0h260.966M435.025 2116.55H734.81m81.66 0h155.156m244.551 0h171.025m94.112 0h446.708m81.612 0h303.349m-1877.958-24.869h306.621m67.988 0h161.992m248.652 0h191.777m94.112 0h428.643m67.988 0h310.185m-1877.958-24.869h306.621m67.988 0h161.992m259.052 0h206.28m94.063 0h403.789m67.988 0h310.185m-1877.958-24.868h306.621m67.988 0h161.992m258.076 0h232.109m94.112 0h213.946m232.929 0h310.185m-1877.958-24.869h306.621m67.988 0h162.139m244.844 0h270.048m94.112 0h164.237m278.731 0h289.238m-1877.958-24.869h306.621m152.168 0h92.656m245.088 0h53.397m55.88 0h44.12m55.88 0h44.12m155.88 0h9.561m163.827 0h36.407m197.968 0h264.385m-1877.958-24.869h306.621m152.168 0h113.749m223.995 0h26.592m531.22 0h61.26m208.076 0h254.277m-1877.958-24.868h238.114m220.675 0h114.531m223.213 0h19.023m524.776 0h75.273m220.723 0h241.63M435.025 1917.6h224.492m234.297 0h127.275m754.268 0h75.273m234.345 0h228.008m-1877.958-24.869h223.173m215.059 0h212.725m268.817 0h16.143m83.857 0h16.143m83.857 0h16.143m204.415 0h95.878m215.01 0h226.738m-1877.958-24.869h233.232m222.041 0h220.537m236.055 0h32.012m67.988 0h32.012m67.988 0h307.304m221.992 0h236.797m-1877.958-24.869H684.37m209.248 0h242.071m211.201 0h32.012m67.988 0h32.012m67.988 0h303.935m209.297 0h252.861m-1877.958-24.868h227.958m245.088 0h251.983m186.836 0h32.012m67.988 0h32.012m67.988 0h311.552m223.067 0h231.474m-1877.958-24.869h222.441m275.459 0h227.129m186.836 0h32.012m67.988 0h32.012m67.988 0h338.652m201.436 0h226.005m-1877.958-24.869h227.764m295.038 0h202.227m186.836 0h32.012m67.988 0h32.012m67.988 0h311.748m223.017 0h231.328m-1877.958-24.869h248.808m298.848 0h177.373m186.836 0h32.012m67.988 0h32.012m67.988 0h303.935m209.785 0h252.373M435.025 1718.65h233.476m230 0h14.922m79.902 0h166.729m186.836 0h32.012m67.988 0h32.012m67.988 0h299.052m230 0h237.041m-1877.958-24.869h223.222m335.078 0h166.729m186.836 0h32.012m67.988 0h32.012m67.988 0h274.199m265.108 0h226.786m-1877.958-24.869h222.538m335.762 0h166.729m186.836 0h32.012m67.988 0h32.012m67.988 0h249.345m288.79 0h227.958m-1877.958-24.869H632.71m360.615 0h166.729m186.836 0h32.012m67.988 0h32.012m67.988 0h224.443m300.313 0h241.337m-1877.958-24.868h180.058m378.242 0h166.729m186.836 0h32.012m67.988 0h32.012m67.988 0h199.589m94.112 0h10.959m215.896 0h245.537m-1877.958-24.869h179.374m378.926 0h166.729m186.836 0h32.012m67.988 0h32.012m67.988 0h174.736m94.063 0h14.97m253.096 0h229.228m-1877.958-24.869h179.374m378.926 0h65.654m70.186 0h29.814m187.911 0h32.012m67.988 0h32.012m67.988 0h149.833m94.112 0h14.971m280.928 0h226.249m-1877.958-24.869h179.374m378.926 0h43.974m309.591 0h32.012m67.988 0h32.012m67.988 0h124.98m94.112 0h14.971m297.724 0h234.306m-1877.958-24.869h179.374m67.988 0h12.091m298.847 0h38.31m315.255 0h32.012m67.988 0h32.012m67.988 0h100.127m94.062 0h18.926m289.961 0h263.017m-1877.958-24.868h179.374m67.988 0h59.259m251.679 0h43.437m310.128 0h32.012m67.988 0h32.012m67.988 0h81.475m87.861 0h41.728m68.037 0h30.4m146.407 0h310.185m-1877.958-24.869h179.374m67.988 0h59.259m251.679 0h38.262m315.303 0h32.012m67.988 0h32.012m67.988 0h80.449m68.036 0h62.579m68.037 0h52.422m124.385 0h310.185m-1877.958-24.869h179.374m67.988 0h59.259m67.988 0h40.703m142.988 0h38.262m315.303 0h32.012m67.988 0h32.012m67.988 0h80.449m68.036 0h62.579m68.037 0h108.819m67.988 0h310.185m-1877.958-24.869h179.374m67.988 0h59.259m67.988 0h40.703m142.988 0h38.262m315.303 0h32.012m67.988 0h32.012m67.988 0h80.449m68.036 0h62.579m68.037 0h108.819m67.988 0h310.185m-1877.958-24.868h179.374m67.988 0h59.259m67.988 0h40.703m142.988 0h29.961m323.604 0h32.012m67.988 0h32.012m67.988 0h80.449m68.036 0h62.579m68.037 0h108.819m67.988 0h310.185m-1877.958-24.869h179.374m67.988 0h59.259m67.988 0h40.703m496.553 0h32.012m67.988 0h32.012m67.988 0h80.449m68.036 0h62.579m68.037 0h108.819m67.988 0h310.185m-1877.958-24.869h179.374m67.988 0h22.588m362.667 0h40.897m67.99 0h32.01m138.351 0h32.012m67.988 0h32.012m67.988 0h80.449m68.036 0h62.579m68.037 0h72.148m141.378 0h273.466m-1877.958-24.869h179.374m443.672 0h50.468m67.99 0h32.01m138.351 0h32.012m67.988 0h32.012m254.853 0h24.199m68.037 0h45.684m194.258 0h247.05m-1877.958-24.868h179.374m443.672 0h50.468m67.99 0h32.01m138.351 0h32.012m67.988 0h32.012m266.084 0h12.968m68.037 0h30.694m224.286 0h232.012m-1877.958-24.869h179.374m443.672 0h50.468m67.99 0h32.01m138.351 0h32.012m67.988 0h32.012m262.372 0h16.68m68.037 0h22.636m240.402 0h223.954m-1877.958-24.869h179.374m443.672 0h50.468m67.99 0h32.01m138.351 0h32.012m67.988 0h32.012m138.007 0h10.441m102.987 0h27.617m68.037 0h20.147m245.38 0h221.465m-1877.958-24.869h179.374m443.672 0h50.468m67.99 0h32.01m138.351 0h32.012m67.988 0h32.012m138.007 0h10.441m102.987 0h27.617m68.037 0h22.832m240.01 0h224.15m-1877.958-24.868h179.374m443.672 0h50.468m67.99 0h32.01m138.351 0h32.012m67.988 0h32.012m138.007 0h10.441m102.987 0h27.617m68.037 0h31.132m223.41 0h232.45m-1877.958-24.869h179.374m443.672 0h50.468m67.99 0h32.01m148.654 0h21.709m67.988 0h32.012m138.007 0h10.441m102.987 0h27.617m68.037 0h46.464m192.746 0h247.782m-1877.958-24.869h179.374m67.988 0h24.004m351.68 0h50.468m67.99 0h32.01m153.146 0h17.176m68.029 0h32.012m138.007 0h10.441m102.987 0h27.617m68.037 0h73.564m138.496 0h274.932m-1877.958-24.869h179.374m67.988 0h59.259m67.988 0h40.703m207.734 0h50.468m67.99 0h32.01m142.94 0h27.423m67.988 0h32.012m138.007 0h10.441m102.987 0h27.617m68.037 0h108.819m67.988 0h310.185M435.025 1096.93h179.374m67.988 0h59.259m67.988 0h40.703m207.734 0h50.468m67.99 0h32.01m67.99 0h102.373m67.988 0h32.012m138.007 0h10.441m102.987 0h27.617m68.037 0h108.672m68.135 0h310.185m-1877.958-24.868h179.374m67.988 0h59.259m67.988 0h40.703m207.734 0h50.468m67.99 0h32.01m122.531 0h47.832m67.988 0h32.012m138.007 0h10.441m102.987 0h27.617m68.037 0h83.819m90.644 0h312.529m-1877.958-24.869h179.374m67.988 0h59.259m67.988 0h40.703m207.734 0h50.468m67.99 0h32.01m129.562 0h40.801m67.988 0h32.012m138.007 0h10.441m102.987 0h27.617m68.037 0h37.774m115.253 0h333.965m-1877.958-24.869h179.374m67.988 0h59.259m67.988 0h30.547m217.89 0h50.468m67.99 0h32.01m122.139 0h48.224m67.988 0h32.012m126.581 0h21.856m102.998 0h27.617m68.037 0h23.564m104.61 0h358.818M435.025 997.455h179.374m67.988 0h59.259m67.988 0h8.573m239.864 0h50.468m67.99 0h32.01m113.448 0h38.799m85.713 0h32.403m122.968 0h25.469m102.998 0h27.617m68.037 0h25.224m92.744 0h369.024M435.025 972.587h179.374m67.988 0h59.259m316.425 0h50.468m89.668 0h10.326m94.412 0h12.226m114.872 0h48.859m122.968 0h25.469m102.998 0h27.617m68.037 0h37.579m68.036 0h381.377M435.025 947.718h179.374m67.988 0h59.259m316.425 0h53.008m294.111 0h73.712m122.968 0h25.469m102.998 0h27.617m68.037 0h37.579m68.036 0h381.377M435.025 922.849h179.374m67.988 0h59.259m328.632 0h45.587m614.472 0h27.617m68.037 0h37.579m68.036 0h381.377M435.025 897.98h179.374m67.988 0h59.259m330.536 0h70.88m35.42 0h30.057m521.798 0h27.617m68.037 0h37.579m68.036 0h381.377M435.025 873.112h179.374m67.988 0h59.259m316.864 0h150.029m127.999 0h139.287m254.512 0h27.617m68.037 0h37.579m68.036 0h381.377M435.025 848.243h179.374m67.988 0h59.259m251.679 0h215.214m88.742 0h153.69m279.366 0h27.617m68.037 0h37.579m68.036 0h381.377M435.025 823.374h179.374m67.988 0h59.259m251.679 0h215.214m113.595 0h103.936m304.267 0h27.617m68.037 0h37.579m68.036 0h381.377M435.025 798.505h179.374m67.988 0h59.259m450.605 0h16.288m138.448 0h54.228m94.112 0h12.627m222.383 0h27.617m68.037 0h37.579m68.036 0h381.377M435.025 773.636h179.374m67.988 0h59.259m728.828 0h44.657m215.206 0h27.617m68.037 0h37.579m68.036 0h381.377M435.025 748.768h170.976m84.834 0h50.811m231.708 0h132.403m170.772 0h26.102m142.94 0h112.871m171.895 0h27.617m68.037 0h37.579m68.036 0h381.377M435.025 723.899h164.384m97.969 0h44.268m534.883 0h48.564m98.017 0h96.025m211.202 0h27.617m68.037 0h37.579m68.036 0h381.377M435.025 699.03H607.27m82.247 0h52.129m141.816 0h45.293m347.774 0h56.084m83.026 0h76.104m111.055 0h24.541m102.998 0h27.617m68.037 0h37.579m68.036 0h381.377M435.025 674.161h306.621m141.816 0h233.525m159.542 0h211.454m97.286 0h42.07m115.595 0h15.02m68.037 0h37.579m68.036 0h381.377M435.025 649.293h306.621m141.816 0h245.781m147.286 0h222.588m75.018 0h53.204m116.914 0h13.701m68.037 0h37.579m68.036 0h381.377M435.025 624.424h306.621m141.816 0h265.947m136.738 0h341.192m102.216 0h28.399m68.037 0h37.579m68.036 0h381.377M435.025 599.555h306.621m141.816 0h65.264m746.649 0h62.579m172.335 0h382.694M435.025 574.686h306.621m141.816 0h57.451m748.017 0h69.024m152.9 0h402.129M435.025 549.818h306.621m922.676 0h93.632m137.324 0h417.705M435.025 524.949h306.621m659.393 0h356.915m124.385 0h430.644M435.025 500.08h306.621m176.825 0h176.251m731.025 0h487.236M435.025 475.211h309.794m185.127 0h162.579m717.938 0h502.52M435.025 450.343h332.256m159.198 0h179.424m69.698 0h1137.382M1213.756 2016.629h15.29v-75.342l30.293-30.332-3.481 8.427-2.195 9.149-.739 9.381.739 9.381 2.195 9.149 3.601 8.693 4.918 8.024 6.11 7.155 7.155 6.11 8.023 4.917 8.693 3.601 9.15 2.196 9.38.739 9.381-.739 9.15-2.196 8.693-3.601 8.023-4.917 7.155-6.11 6.11-7.155 1.462-2.188 4.429 5.885 6.654 6.653 7.611 5.532 8.385 4.271 8.949 2.907 9.294 1.473h9.409l9.294-1.473 8.949-2.907 8.384-4.271 7.612-5.532 6.654-6.653 4.376-5.885 4.429 5.885 6.654 6.653 7.611 5.532 8.385 4.271 8.949 2.907 9.643 1.487-127.461 127.475-161.008-.017-5.386-7.444-6.653-6.653-5.885-4.377 5.885-4.429 6.653-6.653 5.532-7.612 4.272-8.384 2.906-8.949 1.473-9.294v-9.41l-1.473-9.294-2.906-8.948-4.272-8.385-5.532-7.612-1.01-1.094m-130.786-118.31l-9.096-1.431h-9.409l-9.294 1.472-8.949 2.907-8.385 4.271-7.611 5.532-6.654 6.653-5.531 7.612-4.272 8.385-2.907 8.948-1.472 9.294v9.41l1.432 9.096-29.077 29.212-4.114 6.158-2.563 6.947-.87 7.353.097 187.466 1.445 7.263 3.1 6.725 4.584 5.815 21.816 21.679 6.158 4.114 6.946 2.563 7.354.87 77.477-.097 7.262-1.445 6.724-3.1 5.817-4.584 32.42-32.421 9.067 1.461h9.409l9.294-1.473 8.949-2.907 8.384-4.271 7.612-5.532 6.653-6.653 5.419-7.444 176.511-.097 7.262-1.445 6.726-3.1 5.815-4.584 182.68-182.681 9.093 1.435h9.409l9.294-1.473 8.949-2.907 8.384-4.271 7.612-5.532 1.095-1.01-.003 15.378h75.342l51.185 51.009 6.158 4.114 6.947 2.563 7.353.87h137.452l-.046 58.001-14.499 4.998-8.571 3.951-8.235 4.612-7.847 5.244-7.412 5.842-6.931 6.407-6.407 6.931-5.842 7.412-5.244 7.847-4.612 8.235-3.951 8.571-3.267 8.855-2.561 9.084-1.842 9.257-1.11 9.372-.37 9.431.37 9.43 1.11 9.373 1.842 9.257 2.561 9.084 3.267 8.855 3.951 8.57 4.612 8.235 5.244 7.848 5.842 7.412 6.435 6.956-1023.213-.025 6.407-6.931 5.843-7.412 5.244-7.848 4.611-8.235 3.952-8.57 3.266-8.855 2.562-9.084 1.841-9.257 1.11-9.373.37-9.43-.37-9.431-1.11-9.372-1.841-9.257-2.562-9.084-3.266-8.855-3.952-8.571-4.611-8.235-5.244-7.847-5.843-7.412-6.407-6.931-6.93-6.407-7.412-5.842-7.848-5.244-8.235-4.612-8.571-3.951-14.496-4.859-.003-98.103 84.174-.038v-119.536h-25.928l8.422-7.025 6.091-7.131 4.9-7.997 3.589-8.664 2.189-9.121.737-9.349-.737-9.349-.854-4.298 93.572-93.693 4.114-6.156 2.563-6.948.871-7.353V939.49l1.72 1.583.105 410.503 1.445 7.263 3.1 6.725 4.584 5.815 32.283 32.282.029 75.411h15.283l-6.447 8.704-4.272 8.384-2.907 8.949-1.472 9.294v9.409l1.472 9.294 2.907 8.949 4.272 8.385 5.531 7.611 6.654 6.654 7.611 5.531 8.385 4.272 8.949 2.907 9.294 1.472h9.409l9.294-1.472 8.949-2.907 8.385-4.272 7.611-5.531 6.654-6.654 4.376-5.884 4.429 5.884 6.654 6.654 7.443 5.418v248.545l-79.679 79.636m28.127-539.161h-32.324l-23.151-23.11.025-394.887 6.119-6.889 3.813-6.222 2.792-6.741 1.704-7.095.572-7.274-.572-7.274-1.704-7.096-2.792-6.74-3.813-6.222-4.739-5.548-5.548-4.739-6.222-3.813-6.74-2.792-7.096-1.704-7.274-.572-7.274.572-7.095 1.704-6.741 2.792-6.222 3.813-5.887 5.105-.009-53.378 13.5-1.555 153.883-.097 7.262-1.445 6.725-3.1 5.815-4.584 21.681-21.819 4.114-6.156 2.563-6.948.87-7.353v-69.384l3.791-3.98-.008 666.954-7.585-1.684-9.381-.739-9.38.739-9.15 2.195-1.501.554-.003-376.161 7.827-3.113 6.222-3.812 5.548-4.739 4.739-5.549 3.813-6.222 2.792-6.741 1.704-7.095.572-7.274-.572-7.274-1.704-7.096-2.792-6.74-3.813-6.222-4.739-5.548-5.548-4.739-6.222-3.813-6.741-2.792-7.095-1.704-7.274-.572-7.274.572-7.095 1.704-6.741 2.792-6.222 3.813-5.549 4.739-4.739 5.548-3.812 6.222-2.793 6.74-1.703 7.096-.572 7.274.182 3.974-2.529 6.89-.87 7.353v398.975m768.034 537.779h-25.931v96.533l-40.138.004-40.159-40.113.008-75.372h-119.929v15.283l-8.704-6.448-8.384-4.271-8.949-2.907-9.294-1.472h-9.409l-9.294 1.472-8.949 2.907-8.385 4.271-7.611 5.532-6.654 6.654-4.376 5.884-4.429-5.884-6.654-6.654-7.444-5.419v-570.811l5.621 6.815 5.549 4.739 6.222 3.812 6.741 2.793 7.094 1.704 7.275.572 7.274-.572 7.096-1.704 6.74-2.793 6.222-3.812 5.548-4.739 4.739-5.548 3.813-6.222 2.792-6.74 1.704-7.096.572-7.274-.572-7.275-1.704-7.094-2.792-6.742-3.813-6.221-4.739-5.549-1.371-1.268-.106-211.57-1.445-7.263-3.1-6.724-4.584-5.815-5.766-5.767-.008-78.61 7.148-.06 7.207-1.142 6.94-2.255 6.501-3.312 2.668-1.783.097 557.9 1.445 7.262 3.1 6.725 4.584 5.815 215.619 215.619-1.374 8.974v9.378l1.468 9.264 2.899 8.92 4.257 8.355 5.513 7.588 6.631 6.631 7.588 5.513 6.809 3.544-6.809 3.59-7.588 5.513-6.631 6.632-5.513 7.588-4.257 8.355-2.899 8.92-1.468 9.264v9.378l1.468 9.264 2.899 8.92 4.257 8.355 5.513 7.588 6.631 6.631 5.072 3.832m-24.433-281.036l-1.407 8.958.033 9.651-160.518-160.524.014-137.573 7.149.013 7.206-1.142 6.939-2.255 6.502-3.312 5.904-4.289 5.159-5.16 4.288-5.903 3.314-6.501 2.255-6.94 1.141-7.207v-7.297l-1.141-7.206-2.255-6.939-3.314-6.502-4.288-5.904-3.851-3.949-.008-562.287 6.12-6.909 3.812-6.221 2.793-6.741 1.703-7.096.572-7.274-.572-7.275-1.703-7.094-2.793-6.742-3.812-6.222-4.739-5.548-5.549-4.739-6.221-3.812-6.742-2.792-7.094-1.703-7.275-.573-3.492.137-.105-21.707-1.445-7.263-3.099-6.725-4.586-5.815-21.816-21.679-6.156-4.114-6.948-2.563-7.353-.87h-240.87l-.017-7.148-1.142-7.208-2.254-6.939-2.874-5.717 364.772.012 1.503 13.5.098 982.289 1.443 7.262 3.101 6.725 4.584 5.815 85.04 85.039m82.591-149.934l-5.95-2.339-9.12-2.189-9.35-.736-9.349.736-9.12 2.189-8.664 3.589-7.998 4.901-7.131 6.09-6.091 7.131-4.9 7.998-3.589 8.664-2.189 9.12-.736 9.35.216 4.962-29.868-29.875-.018-897.565 5.705 2.84 6.94 2.256 7.207 1.14 5.515.071 17.257 17.244-.005 357.114-6.12 6.852-3.812 6.222-2.792 6.741-1.703 7.095-.573 7.274.573 7.274 1.703 7.095 2.792 6.741 3.812 6.222 4.739 5.549 5.549 4.738 6.221 3.813 6.742 2.792 7.094 1.704 7.275.572 1.867-.074 37.835 37.823.022 33.605-14.499 4.904-8.571 3.952-8.235 4.611-7.847 5.245-7.412 5.842-6.931 6.407-6.407 6.93-5.842 7.412-5.244 7.848-4.612 8.235-3.951 8.571-3.267 8.854-2.561 9.084-1.842 9.258-1.11 9.372-.37 9.431.37 9.43 1.11 9.373 1.842 9.257 2.561 9.084 3.267 8.854 3.951 8.571 4.612 8.235 5.244 7.848 5.842 7.412 6.407 6.93 6.931 6.407 7.412 5.843 7.847 5.244 8.235 4.611 8.571 3.952 14.496 4.858.003 103.378m146.989 431.536l-1.467-9.264-2.899-8.92-4.257-8.356-5.513-7.588-6.631-6.631-7.588-5.513-6.809-3.543 6.809-3.591 7.588-5.513 6.631-6.631 5.513-7.588 4.257-8.356 2.899-8.92 1.467-9.264v-9.378l-1.467-9.263-2.899-8.92-4.257-8.356-5.513-7.588-6.631-6.631-7.588-5.513-6.809-3.544 6.809-3.59 7.588-5.513 6.631-6.631 5.513-7.588 4.257-8.356 2.899-8.92 1.467-9.264v-9.378l-1.467-9.264-2.899-8.919-4.257-8.356-5.513-7.588-6.631-6.631-7.588-5.513-6.809-3.544 6.809-3.59 7.588-5.513 6.631-6.632 5.513-7.588 4.257-8.355 2.899-8.92 1.467-9.264v-9.378l-1.467-9.264-2.899-8.92-4.257-8.355-5.513-7.588-6.631-6.631-7.588-5.514-8.356-4.257-8.92-2.899-9.264-1.467h-9.378l-9.263 1.467-8.92 2.899-1.547.714.014-157.871 14.499-4.92 8.571-3.952 8.234-4.611 7.848-5.244 7.412-5.843 6.931-6.407 6.407-6.93 5.842-7.412 5.244-7.848 4.612-8.235 3.951-8.571 3.267-8.854 2.561-9.084 1.841-9.257 1.111-9.373.37-9.43-.37-9.431-1.111-9.372-1.841-9.258-2.561-9.084-3.267-8.854-3.951-8.571-4.612-8.235-5.244-7.848-5.842-7.412-6.407-6.93-6.931-6.407-7.412-5.842-7.848-5.245-8.234-4.611-8.571-3.952-14.496-4.858-.1-49.148-1.445-7.263-3.1-6.724-4.584-5.815-47.06-47.06-.081-5.538-1.142-7.208-2.255-6.939-3.312-6.502-4.289-5.903-3.85-3.948-.107-372.674-1.443-7.262-3.101-6.724-4.584-5.815-26.414-26.414-.552-9.206-1.703-7.096-2.792-6.741-3.812-6.221-4.739-5.548-5.549-4.739-6.221-3.812-6.742-2.793-7.094-1.703-7.275-.573-7.274.573-7.096 1.703-6.741 2.793-2.402 1.345-.084-16.487-1.445-7.263-3.099-6.725-4.586-5.815-21.816-21.679-6.156-4.114-6.948-2.563-7.353-.87H1174.95l-6.862-6.119-6.222-3.813-6.741-2.792-7.095-1.704-7.274-.572-7.274.572-7.095 1.704-6.741 2.792-6.222 3.813-5.549 4.739-4.739 5.548-3.812 6.222-2.793 6.741-1.703 7.095-.572 7.274.572 7.274 1.703 7.095 2.793 6.741 1.345 2.402-192.799-.012 6.385-5.356 4.738-5.548 3.813-6.222 2.792-6.741 1.704-7.095.572-7.274-.572-7.274-1.704-7.095-2.792-6.741-3.813-6.222-4.738-5.549-4.149-3.635 1405.353.008.041 1882.959-261.69.019 6.407-6.931 5.842-7.412 5.244-7.848 4.612-8.235 3.951-8.57 3.267-8.855 2.561-9.084 1.841-9.257 1.111-9.373.37-9.43-.37-9.431-1.111-9.372-1.841-9.257-2.561-9.084-3.267-8.855-3.951-8.571-4.612-8.235-5.244-7.847-5.842-7.412-6.407-6.931-6.931-6.407-7.412-5.842-7.848-5.244-8.234-4.612-8.571-3.951-14.496-4.859-.003-76.619 48.358-48.468 4.114-6.158 2.563-6.947.87-7.353v-16.065l7.317-5.379 6.631-6.631 5.513-7.588 4.257-8.356 2.899-8.92 1.467-9.264v-9.377M891.13 1733.865l-1.407-8.958 38.088-38.07.032 19.92-36.713 36.486v-9.378m-45.937-271.599l-8.958-1.406h-9.378l-9.264 1.467-8.92 2.899-1.547.714.014-103.305 14.499-4.959 8.571-3.952 8.235-4.611 7.848-5.244 6.572-5.181-.022 115.876m-157.528 393.069l-6.808 3.543-7.588 5.513-6.632 6.631-5.513 7.588-4.257 8.356-2.899 8.92-1.467 9.264v9.377l1.467 9.264 2.899 8.92 4.257 8.356 5.513 7.588 6.632 6.631 7.588 5.513 8.355 4.257 8.92 2.899 9.264 1.467h9.378l9.264-1.467 8.92-2.899 1.547-.714-.015 157.851-14.498 4.941-8.571 3.951-8.235 4.612-7.848 5.244-7.412 5.842-6.93 6.407-6.407 6.931-5.843 7.412-5.244 7.847-4.611 8.235-3.952 8.571-3.266 8.855-2.562 9.084-1.841 9.257-1.11 9.372-.37 9.431.37 9.43 1.11 9.373 1.841 9.257 2.562 9.084 3.266 8.855 3.952 8.57 4.611 8.235 5.244 7.848 5.843 7.412 6.261 6.953H432.541L432.5 432.541l420.068-.041-5.342 5-54.057.105-7.262 1.445-6.725 3.1-5.815 4.584-21.679 21.817-4.115 6.156-2.563 6.948-.87 7.354v641.65l-14.498 4.914-8.571 3.952-8.235 4.611-7.848 5.245-7.412 5.842-6.93 6.407-6.407 6.93-4.36 5.531.015-414.97 6.119-6.872 3.812-6.221 2.793-6.742 1.704-7.094.572-7.275-.572-7.274-1.704-7.096-2.793-6.74-3.812-6.222-4.739-5.548-5.548-4.739-6.222-3.812-6.74-2.793-7.096-1.703-7.274-.573-7.275.573-7.094 1.703-6.742 2.793-6.221 3.812-5.549 4.739-4.739 5.548-3.812 6.222-2.793 6.74-1.703 7.096-.572 7.274.572 7.275 1.703 7.094 2.793 6.742 3.812 6.221 4.739 5.549 1.373 1.268.105 856.09 1.445 7.264 3.099 6.724 4.584 5.815 35.46 35.46-1.428 8.918v9.378l1.467 9.264 2.899 8.92 4.257 8.356 5.513 7.588 6.632 6.631 7.588 5.513 6.808 3.543-6.808 3.591-7.588 5.513-6.632 6.631-5.513 7.588-4.257 8.356-2.899 8.92-1.467 9.263v9.378l1.467 9.264 2.899 8.92 4.257 8.356 5.513 7.588 6.632 6.631 7.588 5.513 6.808 3.543m48.84-327.118l-5.95-2.338-9.121-2.189-9.349-.737-9.349.737-9.121 2.189-8.664 3.589-7.997 4.9-4.722 3.864.012-211.205 10.752 12.342 6.93 6.407 7.412 5.843 7.848 5.244 8.235 4.611 8.571 3.952 14.496 4.858.002 157.87m108.725-365.842l-6.572-5.181-7.848-5.245-8.235-4.611-8.571-3.952-14.496-4.858.028-231.917 7.274.572 3.492-.138.105 87.798 1.445 7.263 3.1 6.725 4.584 5.815 25.653 25.654.019 121.98m628.545 732.429l-7.443 5.419-6.654 6.654-4.376 5.884-4.429-5.884-6.654-6.654-7.444-5.419-.097-886.88-1.445-7.263-3.099-6.724-4.584-5.815-34.632-34.631-.066-5.373 79.37-.009 1.553 13.502v933.155m-100 .038l-7.443 5.419-6.654 6.654-4.376 5.884-4.429-5.884-6.654-6.654-7.444-5.419.002-701.572 6.119-6.854 3.813-6.222 2.792-6.74 1.704-7.096.572-7.274-.572-7.274-1.704-7.095-2.792-6.741-3.813-6.222-4.739-5.549-5.548-4.739-6.222-3.812-6.74-2.793-7.096-1.703-7.274-.572-7.275.572-7.094 1.703-6.741 2.793-6.222 3.812-5.549 4.739-4.739 5.549-1.228 1.838-.003-34.186 7.793 1.974 7.274.572 7.275-.572 7.094-1.704 6.742-2.792 6.221-3.813 5.549-4.738 4.739-5.549 3.812-6.222 2.793-6.741 1.703-7.095.572-7.274-.572-7.274-1.703-7.095-2.793-6.741-3.812-6.222-4.739-5.549-1.373-1.267-.396-12.496-2.009-7.128-3.618-6.46-3.21-3.759-17.368-17.367 2.815-11.517 7.274.572 4.881-.289 2.159 6.584 3.312 6.501 4.289 5.903 5.16 5.16 5.903 4.289 6.501 3.312 6.94 2.255 7.207 1.142 5.515.069 25.405 25.394.014 871.39m-100-.015l-7.443 5.419-1.797 1.66 1.503-5.841.388-4.928v-706.493l5.97 7.305 1.373 1.268.006 701.643-7.446-1.251.096-2.481m270.361-734.335h6.983l-6.994 1.55v-1.513l7.002 10.373v96.534l-6.12 6.882-.879 1.316-.003-113.592m-123.921-429.718l-1.142-7.206-2.254-6.939-3.314-6.502-4.288-5.904-5.159-5.159-5.903-4.288-6.503-3.313-6.939-2.256-7.206-1.14h-7.297l-7.207 1.14-6.94 2.256-6.501 3.313-5.903 4.288-5.16 5.159-4.289 5.904-3.312 6.502-2.255 6.939-1.142 7.206-.069 5.516-53.637 53.648-.008-135.861 3.844-5.358 3.314-6.501 2.254-6.94 1.142-7.207v-7.297l-.794-5.458 344.515.008 1.54 13.5-.106 110.955-4.584-5.814-42.088-42.088-.534-9.189-1.703-7.095-2.793-6.741-3.812-6.222-4.739-5.549-5.549-4.739-6.222-3.812-6.741-2.793-7.095-1.703-7.274-.572-7.274.572-7.096 1.703-6.74 2.793-6.222 3.812-5.548 4.739-4.739 5.549-3.813 6.222-2.792 6.741-1.704 7.095-.572 7.274.572 7.274 1.704 7.095 2.792 6.741 3.813 6.222 4.739 5.548 5.548 4.739 6.222 3.813 6.74 2.792 7.096 1.704 7.274.572 1.866-.074 26.373 26.36-7.912-.703-7.274.573-7.095 1.703-6.741 2.792-6.222 3.812-5.549 4.739-4.738 5.549-3.813 6.221-2.792 6.742-1.704 7.094-.572 7.275.572 7.274 1.704 7.096 2.792 6.741 2.221 3.837-97.17-97.168-.093-5.551m-48.224 50.075h3.733l106.474 106.462-144.105-.03-6.911-6.12-6.221-3.812-6.742-2.793-7.094-1.703-7.275-.572-7.274.572-2.783.554-.006-14.332 78.16-78.194m-179.526-165.565l-.794 5.458v7.297l.338 2.848-9.187-2.427-7.274-.573-7.274.573-7.095 1.703-6.741 2.792-6.222 3.812-5.549 4.739-4.739 5.549-3.812 6.221-2.793 6.742-1.703 7.094-.572 7.275.424 6.014-6.719 2.198-6.502 3.314-5.903 4.289-3.948 3.85-149.737.105-7.262 1.445-6.724 3.1-5.815 4.584-14.468 14.467-7.404-2.412-7.207-1.142h-7.297l-7.206 1.142-6.939 2.254-5.594 2.805-.01-138.537 13.5-1.571h49.072l.012 7.148 1.142 7.208 2.254 6.939 3.314 6.502 4.289 5.903 5.158 5.158 5.903 4.29 6.503 3.313 6.938 2.254 7.208 1.142h7.296l7.207-1.142 6.94-2.254 6.501-3.313 5.903-4.29 3.949-3.85 168.635-.008m-86.061 141.777l3.948 3.85 5.903 4.289 2.353 1.316-141.941.099-4.891.775-1.137-1.593v-7.178l3.572 8.287-2.425.482.391-10.336h134.179"/><use x="1169.081" y="1956.664" xlink:href="#rJW6jLUIge_pad-15"/><use x="1069.081" y="1956.664" xlink:href="#rJW6jLUIge_pad-16"/><use x="1169.081" y="2056.664" xlink:href="#rJW6jLUIge_pad-16"/><use x="1069.081" y="2056.664" xlink:href="#rJW6jLUIge_pad-16"/><use x="1169.081" y="2156.664" xlink:href="#rJW6jLUIge_pad-16"/><use x="1069.081" y="2156.664" xlink:href="#rJW6jLUIge_pad-16"/><use x="1094.073" y="1419.108" xlink:href="#rJW6jLUIge_pad-15"/><use x="1094.073" y="1519.108" xlink:href="#rJW6jLUIge_pad-16"/><use x="1194.073" y="1419.108" xlink:href="#rJW6jLUIge_pad-16"/><use x="1194.073" y="1519.108" xlink:href="#rJW6jLUIge_pad-16"/><use x="1912.909" y="1956.664" xlink:href="#rJW6jLUIge_pad-23"/><use x="1912.909" y="1847.609" xlink:href="#rJW6jLUIge_pad-24"/><use x="1912.909" y="1738.554" xlink:href="#rJW6jLUIge_pad-24"/><use x="1912.909" y="1629.499" xlink:href="#rJW6jLUIge_pad-24"/><use x="1912.909" y="1520.444" xlink:href="#rJW6jLUIge_pad-24"/><use x="2024.72" y="1902.136" xlink:href="#rJW6jLUIge_pad-24"/><use x="2024.72" y="1793.081" xlink:href="#rJW6jLUIge_pad-24"/><use x="2024.72" y="1684.026" xlink:href="#rJW6jLUIge_pad-24"/><use x="2024.72" y="1574.971" xlink:href="#rJW6jLUIge_pad-24"/><use x="1968.815" y="2230.483" xlink:href="#rJW6jLUIge_pad-25"/><use x="1968.815" y="1246.625" xlink:href="#rJW6jLUIge_pad-25"/><use x="831.546" y="1956.664" xlink:href="#rJW6jLUIge_pad-23"/><use x="831.546" y="1847.609" xlink:href="#rJW6jLUIge_pad-24"/><use x="831.546" y="1738.554" xlink:href="#rJW6jLUIge_pad-24"/><use x="831.546" y="1629.499" xlink:href="#rJW6jLUIge_pad-24"/><use x="831.546" y="1520.444" xlink:href="#rJW6jLUIge_pad-24"/><use x="719.735" y="1902.136" xlink:href="#rJW6jLUIge_pad-24"/><use x="719.735" y="1793.081" xlink:href="#rJW6jLUIge_pad-24"/><use x="719.735" y="1684.026" xlink:href="#rJW6jLUIge_pad-24"/><use x="719.735" y="1574.971" xlink:href="#rJW6jLUIge_pad-24"/><use x="775.641" y="1246.625" xlink:href="#rJW6jLUIge_pad-25"/><use x="775.641" y="2230.483" xlink:href="#rJW6jLUIge_pad-25"/><use x="1712.888" y="1937.912" xlink:href="#rJW6jLUIge_pad-15"/><use x="1612.888" y="1937.912" xlink:href="#rJW6jLUIge_pad-16"/><use x="1512.888" y="1937.912" xlink:href="#rJW6jLUIge_pad-16"/><use x="1412.888" y="1937.912" xlink:href="#rJW6jLUIge_pad-16"/><use x="1312.888" y="1937.912" xlink:href="#rJW6jLUIge_pad-16"/></g><g id="BJ6jLULxx_bottom_sm"><use x="1169.081" y="1956.664" xlink:href="#H1G6sL8Uge_pad-69"/><use x="1069.081" y="1956.664" xlink:href="#H1G6sL8Uge_pad-67"/><use x="1169.081" y="2056.664" xlink:href="#H1G6sL8Uge_pad-67"/><use x="1069.081" y="2056.664" xlink:href="#H1G6sL8Uge_pad-67"/><use x="1169.081" y="2156.664" xlink:href="#H1G6sL8Uge_pad-67"/><use x="1069.081" y="2156.664" xlink:href="#H1G6sL8Uge_pad-67"/><use x="1094.073" y="1419.108" xlink:href="#H1G6sL8Uge_pad-69"/><use x="1094.073" y="1519.108" xlink:href="#H1G6sL8Uge_pad-67"/><use x="1194.073" y="1419.108" xlink:href="#H1G6sL8Uge_pad-67"/><use x="1194.073" y="1519.108" xlink:href="#H1G6sL8Uge_pad-67"/><use x="1912.909" y="1956.664" xlink:href="#H1G6sL8Uge_pad-57"/><use x="1912.909" y="1847.609" xlink:href="#H1G6sL8Uge_pad-55"/><use x="1912.909" y="1738.554" xlink:href="#H1G6sL8Uge_pad-55"/><use x="1912.909" y="1629.499" xlink:href="#H1G6sL8Uge_pad-55"/><use x="1912.909" y="1520.444" xlink:href="#H1G6sL8Uge_pad-55"/><use x="2024.72" y="1902.136" xlink:href="#H1G6sL8Uge_pad-55"/><use x="2024.72" y="1793.081" xlink:href="#H1G6sL8Uge_pad-55"/><use x="2024.72" y="1684.026" xlink:href="#H1G6sL8Uge_pad-55"/><use x="2024.72" y="1574.971" xlink:href="#H1G6sL8Uge_pad-55"/><use x="1968.815" y="2230.483" xlink:href="#H1G6sL8Uge_pad-53"/><use x="1968.815" y="1246.625" xlink:href="#H1G6sL8Uge_pad-53"/><use x="831.546" y="1956.664" xlink:href="#H1G6sL8Uge_pad-57"/><use x="831.546" y="1847.609" xlink:href="#H1G6sL8Uge_pad-55"/><use x="831.546" y="1738.554" xlink:href="#H1G6sL8Uge_pad-55"/><use x="831.546" y="1629.499" xlink:href="#H1G6sL8Uge_pad-55"/><use x="831.546" y="1520.444" xlink:href="#H1G6sL8Uge_pad-55"/><use x="719.735" y="1902.136" xlink:href="#H1G6sL8Uge_pad-55"/><use x="719.735" y="1793.081" xlink:href="#H1G6sL8Uge_pad-55"/><use x="719.735" y="1684.026" xlink:href="#H1G6sL8Uge_pad-55"/><use x="719.735" y="1574.971" xlink:href="#H1G6sL8Uge_pad-55"/><use x="775.641" y="1246.625" xlink:href="#H1G6sL8Uge_pad-53"/><use x="775.641" y="2230.483" xlink:href="#H1G6sL8Uge_pad-53"/><use x="1712.888" y="1937.912" xlink:href="#H1G6sL8Uge_pad-69"/><use x="1612.888" y="1937.912" xlink:href="#H1G6sL8Uge_pad-67"/><use x="1512.888" y="1937.912" xlink:href="#H1G6sL8Uge_pad-67"/><use x="1412.888" y="1937.912" xlink:href="#H1G6sL8Uge_pad-67"/><use x="1312.888" y="1937.912" xlink:href="#H1G6sL8Uge_pad-67"/></g><g id="BJ6jLULxx_bottom_drl1"><use x="814.4" y="519" xlink:href="#BymajLUIxx_pad-1"/><use x="881.4" y="469" xlink:href="#BymajLUIxx_pad-1"/><use x="989.9" y="573.7" xlink:href="#BymajLUIxx_pad-1"/><use x="1140.8" y="483.7" xlink:href="#BymajLUIxx_pad-1"/><use x="1238.2" y="614.3" xlink:href="#BymajLUIxx_pad-1"/><use x="1175.8" y="664.3" xlink:href="#BymajLUIxx_pad-1"/><use x="1140.8" y="715.5" xlink:href="#BymajLUIxx_pad-1"/><use x="1024.1" y="906.9" xlink:href="#BymajLUIxx_pad-1"/><use x="1160.8" y="941.9" xlink:href="#BymajLUIxx_pad-1"/><use x="1304.1" y="908.7" xlink:href="#BymajLUIxx_pad-1"/><use x="1354.1" y="943.7" xlink:href="#BymajLUIxx_pad-1"/><use x="1289.1" y="1047.5" xlink:href="#BymajLUIxx_pad-1"/><use x="1312.9" y="1151.1" xlink:href="#BymajLUIxx_pad-1"/><use x="1547.9" y="1102.5" xlink:href="#BymajLUIxx_pad-1"/><use x="1582.9" y="1290" xlink:href="#BymajLUIxx_pad-1"/><use x="1696.4" y="1290" xlink:href="#BymajLUIxx_pad-1"/><use x="1897.6" y="1012.8" xlink:href="#BymajLUIxx_pad-1"/><use x="1602.9" y="893.7" xlink:href="#BymajLUIxx_pad-1"/><use x="1556.9" y="798.5" xlink:href="#BymajLUIxx_pad-1"/><use x="1536.6" y="679.9" xlink:href="#BymajLUIxx_pad-1"/><use x="1696.4" y="659.3" xlink:href="#BymajLUIxx_pad-1"/><use x="1847" y="557.8" xlink:href="#BymajLUIxx_pad-1"/><use x="1354.1" y="538.7" xlink:href="#BymajLUIxx_pad-1"/><use x="1374.1" y="724.3" xlink:href="#BymajLUIxx_pad-1"/><use x="904.3" y="750.5" xlink:href="#BymajLUIxx_pad-1"/><use x="814.4" y="852.9" xlink:href="#BymajLUIxx_pad-1"/><use x="648.4" y="724.9" xlink:href="#BymajLUIxx_pad-1"/><use x="1912.9" y="1956.7" xlink:href="#BymajLUIxx_pad-2"/><use x="1912.9" y="1847.6" xlink:href="#BymajLUIxx_pad-2"/><use x="1912.9" y="1738.6" xlink:href="#BymajLUIxx_pad-2"/><use x="1912.9" y="1629.5" xlink:href="#BymajLUIxx_pad-2"/><use x="1912.9" y="1520.4" xlink:href="#BymajLUIxx_pad-2"/><use x="2024.7" y="1575" xlink:href="#BymajLUIxx_pad-2"/><use x="2024.7" y="1684" xlink:href="#BymajLUIxx_pad-2"/><use x="2024.7" y="1793.1" xlink:href="#BymajLUIxx_pad-2"/><use x="2024.7" y="1902.1" xlink:href="#BymajLUIxx_pad-2"/><use x="831.5" y="1956.7" xlink:href="#BymajLUIxx_pad-2"/><use x="831.5" y="1847.6" xlink:href="#BymajLUIxx_pad-2"/><use x="831.5" y="1738.6" xlink:href="#BymajLUIxx_pad-2"/><use x="831.5" y="1629.5" xlink:href="#BymajLUIxx_pad-2"/><use x="831.5" y="1520.4" xlink:href="#BymajLUIxx_pad-2"/><use x="719.7" y="1575" xlink:href="#BymajLUIxx_pad-2"/><use x="719.7" y="1684" xlink:href="#BymajLUIxx_pad-2"/><use x="719.7" y="1793.1" xlink:href="#BymajLUIxx_pad-2"/><use x="719.7" y="1902.1" xlink:href="#BymajLUIxx_pad-2"/><use x="1169.1" y="1956.7" xlink:href="#BymajLUIxx_pad-3"/><use x="1069.1" y="1956.7" xlink:href="#BymajLUIxx_pad-3"/><use x="1069.1" y="2056.7" xlink:href="#BymajLUIxx_pad-3"/><use x="1169.1" y="2056.7" xlink:href="#BymajLUIxx_pad-3"/><use x="1169.1" y="2156.7" xlink:href="#BymajLUIxx_pad-3"/><use x="1069.1" y="2156.7" xlink:href="#BymajLUIxx_pad-3"/><use x="1312.9" y="1937.9" xlink:href="#BymajLUIxx_pad-3"/><use x="1412.9" y="1937.9" xlink:href="#BymajLUIxx_pad-3"/><use x="1512.9" y="1937.9" xlink:href="#BymajLUIxx_pad-3"/><use x="1612.9" y="1937.9" xlink:href="#BymajLUIxx_pad-3"/><use x="1712.9" y="1937.9" xlink:href="#BymajLUIxx_pad-3"/><use x="1194.1" y="1519.1" xlink:href="#BymajLUIxx_pad-3"/><use x="1194.1" y="1419.1" xlink:href="#BymajLUIxx_pad-3"/><use x="1094.1" y="1419.1" xlink:href="#BymajLUIxx_pad-3"/><use x="1094.1" y="1519.1" xlink:href="#BymajLUIxx_pad-3"/><use x="1968.8" y="2230.5" xlink:href="#BymajLUIxx_pad-4"/><use x="1968.8" y="1246.6" xlink:href="#BymajLUIxx_pad-4"/><use x="775.6" y="1246.6" xlink:href="#BymajLUIxx_pad-4"/><use x="775.6" y="2230.5" xlink:href="#BymajLUIxx_pad-4"/></g><clipPath id="BJ6jLULxx_bottom_out"><path fill="none" stroke-width="5.512" d="M394 394h1960v1960H394V394"/></clipPath><mask id="BJ6jLULxx_bottom_mech-mask" stroke="#000"><path fill="#fff" d="M394 394h1960v1960H394z"/><use xlink:href="#BJ6jLULxx_bottom_drl1"/></mask><mask id="BJ6jLULxx_bottom_cf-mask" fill="#fff" stroke="#fff"><use xlink:href="#BJ6jLULxx_bottom_sm"/></mask><mask id="BJ6jLULxx_bottom_sm-mask" stroke="#000"><path fill="#fff" d="M394 394h1960v1960H394z"/><use xlink:href="#BJ6jLULxx_bottom_sm"/></mask></defs><g><g mask="url(#BJ6jLULxx_bottom_mech-mask)" clip-path="url(#BJ6jLULxx_bottom_out)" transform="rotate(180 1374 1374)"><path fill="currentColor" d="M394 394h1960v1960H394z" class="BJ6jLULxx_fr4"/><use fill="currentColor" stroke="currentColor" xlink:href="#BJ6jLULxx_bottom_cu" class="BJ6jLULxx_cu"/><use fill="currentColor" stroke="currentColor" xlink:href="#BJ6jLULxx_bottom_cu" class="BJ6jLULxx_cf" mask="url(#BJ6jLULxx_bottom_cf-mask)"/><g mask="url(#BJ6jLULxx_bottom_sm-mask)"><path fill="currentColor" d="M394 394h1960v1960H394z" class="BJ6jLULxx_sm"/></g></g></g></svg>